<?xml version="1.0" encoding="UTF-8"?> <svg xmlns="http://www.w3.org/2000/svg" width="40" height="40" viewBox="0 0 40 40" fill="none"><rect width="40" height="40" rx="20" fill="white"></rect><path d="M17 14C17 14.394 17.0776 14.7841 17.2284 15.1481C17.3791 15.512 17.6001 15.8427 17.8787 16.1213C18.1573 16.3999 18.488 16.6209 18.852 16.7716C19.2159 16.9224 19.606 17 20 17C20.394 17 20.7841 16.9224 21.1481 16.7716C21.512 16.6209 21.8427 16.3999 22.1213 16.1213C22.3999 15.8427 22.6209 15.512 22.7716 15.148C22.9224 14.7841 23 14.394 23 14C23 13.606 22.9224 13.2159 22.7716 12.8519C22.6209 12.488 22.3999 12.1573 22.1213 11.8787C21.8427 11.6001 21.512 11.3791 21.148 11.2284C20.7841 11.0776 20.394 11 20 11C19.606 11 19.2159 11.0776 18.8519 11.2284C18.488 11.3791 18.1573 11.6001 17.8787 11.8787C17.6001 12.1573 17.3791 12.488 17.2284 12.852C17.0776 13.2159 17 13.606 17 14L17 14Z" stroke="#1A1A1A" stroke-width="2"></path><path d="M12.4371 21.9015C12.0959 22.0985 11.7969 22.3607 11.557 22.6733C11.3172 22.9858 11.1413 23.3426 11.0393 23.7231C10.9373 24.1037 10.9113 24.5006 10.9627 24.8912C11.0142 25.2818 11.142 25.6584 11.339 25.9996C11.536 26.3408 11.7982 26.6398 12.1108 26.8796C12.4234 27.1195 12.7801 27.2954 13.1606 27.3974C13.5412 27.4993 13.9381 27.5253 14.3287 27.4739C14.7193 27.4225 15.0959 27.2946 15.4371 27.0977C15.7783 26.9007 16.0773 26.6384 16.3171 26.3259C16.557 26.0133 16.7329 25.6566 16.8349 25.276C16.9368 24.8955 16.9628 24.4986 16.9114 24.108C16.86 23.7174 16.7321 23.3408 16.5352 22.9996C16.3382 22.6584 16.0759 22.3594 15.7634 22.1195C15.4508 21.8797 15.0941 21.7038 14.7135 21.6018C14.333 21.4998 13.9361 21.4738 13.5455 21.5252C13.1549 21.5767 12.7783 21.7045 12.4371 21.9015L12.4371 21.9015Z" stroke="#1A1A1A" stroke-width="2"></path><path d="M27.5629 21.9015C27.9041 22.0985 28.2031 22.3607 28.443 22.6733C28.6828 22.9859 28.8587 23.3426 28.9607 23.7231C29.0627 24.1037 29.0887 24.5006 29.0373 24.8912C28.9858 25.2818 28.858 25.6584 28.661 25.9996C28.464 26.3408 28.2018 26.6398 27.8892 26.8796C27.5766 27.1195 27.2199 27.2954 26.8394 27.3974C26.4588 27.4993 26.0619 27.5253 25.6713 27.4739C25.2807 27.4225 24.9041 27.2946 24.5629 27.0977C24.2217 26.9007 23.9227 26.6384 23.6829 26.3259C23.443 26.0133 23.2671 25.6566 23.1651 25.276C23.0632 24.8955 23.0372 24.4986 23.0886 24.108C23.14 23.7174 23.2679 23.3408 23.4648 22.9996C23.6618 22.6584 23.9241 22.3594 24.2366 22.1195C24.5492 21.8797 24.9059 21.7038 25.2865 21.6018C25.667 21.4998 26.0639 21.4738 26.4545 21.5252C26.8451 21.5767 27.2217 21.7045 27.5629 21.9015L27.5629 21.9015Z" stroke="#1A1A1A" stroke-width="2"></path><path d="M24.04 26.7139C24.1997 26.8597 24.3743 26.989 24.5625 27.0977C24.9036 27.2946 25.2804 27.4232 25.6709 27.4746C25.8562 27.499 26.0428 27.5035 26.2285 27.4932C25.4215 28.2673 24.4785 28.886 23.4443 29.3145C22.3524 29.7667 21.1819 30 20 30C18.8181 30 17.6476 29.7667 16.5557 29.3145C15.5213 28.8859 14.5777 28.2675 13.7705 27.4932C13.9565 27.5036 14.1435 27.499 14.3291 27.4746C14.7197 27.4232 15.0963 27.2946 15.4375 27.0977C15.6255 26.9891 15.7995 26.8595 15.959 26.7139C16.3831 27.0135 16.8393 27.2671 17.3213 27.4668C18.1706 27.8186 19.0807 28 20 28C20.9193 28 21.8294 27.8186 22.6787 27.4668C23.1605 27.2672 23.6161 27.0133 24.04 26.7139ZM22.5088 12.3594C22.8256 12.4514 23.1384 12.5588 23.4443 12.6855C24.5361 13.1378 25.5286 13.8002 26.3643 14.6357C27.1998 15.4713 27.8622 16.464 28.3145 17.5557C28.7667 18.6475 29 19.8182 29 21C29 21.7253 28.9107 22.4463 28.7383 23.1475C28.6543 22.9813 28.5562 22.8222 28.4424 22.6738C28.2026 22.3613 27.9036 22.0983 27.5625 21.9014C27.3745 21.7928 27.1747 21.7079 26.9688 21.6426C26.9884 21.4294 27 21.2149 27 21C27 20.0808 26.8185 19.1705 26.4668 18.3213C26.115 17.4721 25.6001 16.6997 24.9502 16.0498C24.3645 15.4641 23.6789 14.9893 22.9277 14.6436C22.9741 14.4326 23 14.217 23 14C23 13.6062 22.9222 13.2164 22.7715 12.8525C22.6999 12.6797 22.6107 12.5152 22.5088 12.3594ZM17.4902 12.3594C17.3884 12.5151 17.3001 12.6798 17.2285 12.8525C17.0778 13.2164 17 13.6062 17 14C17 14.2169 17.025 14.4327 17.0713 14.6436C16.3205 14.9893 15.6353 15.4643 15.0498 16.0498C14.3999 16.6997 13.885 17.4721 13.5332 18.3213C13.2254 19.0644 13.0482 19.8545 13.0088 20.6562L13 21C13 21.2148 13.0106 21.4294 13.0303 21.6426C12.8246 21.7079 12.6253 21.793 12.4375 21.9014C12.0963 22.0983 11.7974 22.3613 11.5576 22.6738C11.4441 22.8218 11.3455 22.9799 11.2617 23.1455C11.1246 22.5877 11.039 22.0175 11.0107 21.4424L11 21C11 19.8182 11.2333 18.6475 11.6855 17.5557C12.1378 16.464 12.8002 15.4713 13.6357 14.6357C14.4714 13.8002 15.4639 13.1378 16.5557 12.6855C16.8613 12.5589 17.1737 12.4513 17.4902 12.3594Z" fill="#1A1A1A"></path></svg> 